%TF.GenerationSoftware,KiCad,Pcbnew,9.0.0*%
%TF.CreationDate,2025-03-20T11:59:10+05:30*%
%TF.ProjectId,Buck converter,4275636b-2063-46f6-9e76-65727465722e,rev?*%
%TF.SameCoordinates,Original*%
%TF.FileFunction,Drillmap*%
%TF.FilePolarity,Positive*%
%FSLAX45Y45*%
G04 Gerber Fmt 4.5, Leading zero omitted, Abs format (unit mm)*
G04 Created by KiCad (PCBNEW 9.0.0) date 2025-03-20 11:59:10*
%MOMM*%
%LPD*%
G01*
G04 APERTURE LIST*
%ADD10C,0.050000*%
%ADD11C,0.200000*%
%ADD12C,0.320000*%
G04 APERTURE END LIST*
D10*
X9950000Y-5350000D02*
X21050000Y-5350000D01*
X21050000Y-14450000D01*
X9950000Y-14450000D01*
X9950000Y-5350000D01*
D11*
X19600000Y-7900000D02*
X19800000Y-8100000D01*
X19800000Y-7900000D02*
X19600000Y-8100000D01*
D12*
X12406000Y-9240000D02*
G75*
G02*
X12086000Y-9240000I-160000J0D01*
G01*
X12086000Y-9240000D02*
G75*
G02*
X12406000Y-9240000I160000J0D01*
G01*
X13306000Y-9240000D02*
G75*
G02*
X12986000Y-9240000I-160000J0D01*
G01*
X12986000Y-9240000D02*
G75*
G02*
X13306000Y-9240000I160000J0D01*
G01*
X14151000Y-9240000D02*
G75*
G02*
X13831000Y-9240000I-160000J0D01*
G01*
X13831000Y-9240000D02*
G75*
G02*
X14151000Y-9240000I160000J0D01*
G01*
X15051000Y-9240000D02*
G75*
G02*
X14731000Y-9240000I-160000J0D01*
G01*
X14731000Y-9240000D02*
G75*
G02*
X15051000Y-9240000I160000J0D01*
G01*
D11*
X10208277Y-14763984D02*
X10208277Y-14563984D01*
X10208277Y-14563984D02*
X10255896Y-14563984D01*
X10255896Y-14563984D02*
X10284467Y-14573508D01*
X10284467Y-14573508D02*
X10303515Y-14592555D01*
X10303515Y-14592555D02*
X10313039Y-14611603D01*
X10313039Y-14611603D02*
X10322563Y-14649698D01*
X10322563Y-14649698D02*
X10322563Y-14678269D01*
X10322563Y-14678269D02*
X10313039Y-14716365D01*
X10313039Y-14716365D02*
X10303515Y-14735412D01*
X10303515Y-14735412D02*
X10284467Y-14754460D01*
X10284467Y-14754460D02*
X10255896Y-14763984D01*
X10255896Y-14763984D02*
X10208277Y-14763984D01*
X10408277Y-14763984D02*
X10408277Y-14630650D01*
X10408277Y-14668746D02*
X10417801Y-14649698D01*
X10417801Y-14649698D02*
X10427324Y-14640174D01*
X10427324Y-14640174D02*
X10446372Y-14630650D01*
X10446372Y-14630650D02*
X10465420Y-14630650D01*
X10532086Y-14763984D02*
X10532086Y-14630650D01*
X10532086Y-14563984D02*
X10522563Y-14573508D01*
X10522563Y-14573508D02*
X10532086Y-14583031D01*
X10532086Y-14583031D02*
X10541610Y-14573508D01*
X10541610Y-14573508D02*
X10532086Y-14563984D01*
X10532086Y-14563984D02*
X10532086Y-14583031D01*
X10655896Y-14763984D02*
X10636848Y-14754460D01*
X10636848Y-14754460D02*
X10627324Y-14735412D01*
X10627324Y-14735412D02*
X10627324Y-14563984D01*
X10760658Y-14763984D02*
X10741610Y-14754460D01*
X10741610Y-14754460D02*
X10732086Y-14735412D01*
X10732086Y-14735412D02*
X10732086Y-14563984D01*
X10989229Y-14763984D02*
X10989229Y-14563984D01*
X10989229Y-14563984D02*
X11055896Y-14706841D01*
X11055896Y-14706841D02*
X11122563Y-14563984D01*
X11122563Y-14563984D02*
X11122563Y-14763984D01*
X11303515Y-14763984D02*
X11303515Y-14659222D01*
X11303515Y-14659222D02*
X11293991Y-14640174D01*
X11293991Y-14640174D02*
X11274943Y-14630650D01*
X11274943Y-14630650D02*
X11236848Y-14630650D01*
X11236848Y-14630650D02*
X11217801Y-14640174D01*
X11303515Y-14754460D02*
X11284467Y-14763984D01*
X11284467Y-14763984D02*
X11236848Y-14763984D01*
X11236848Y-14763984D02*
X11217801Y-14754460D01*
X11217801Y-14754460D02*
X11208277Y-14735412D01*
X11208277Y-14735412D02*
X11208277Y-14716365D01*
X11208277Y-14716365D02*
X11217801Y-14697317D01*
X11217801Y-14697317D02*
X11236848Y-14687793D01*
X11236848Y-14687793D02*
X11284467Y-14687793D01*
X11284467Y-14687793D02*
X11303515Y-14678269D01*
X11398753Y-14630650D02*
X11398753Y-14830650D01*
X11398753Y-14640174D02*
X11417801Y-14630650D01*
X11417801Y-14630650D02*
X11455896Y-14630650D01*
X11455896Y-14630650D02*
X11474943Y-14640174D01*
X11474943Y-14640174D02*
X11484467Y-14649698D01*
X11484467Y-14649698D02*
X11493991Y-14668746D01*
X11493991Y-14668746D02*
X11493991Y-14725888D01*
X11493991Y-14725888D02*
X11484467Y-14744936D01*
X11484467Y-14744936D02*
X11474943Y-14754460D01*
X11474943Y-14754460D02*
X11455896Y-14763984D01*
X11455896Y-14763984D02*
X11417801Y-14763984D01*
X11417801Y-14763984D02*
X11398753Y-14754460D01*
X11579705Y-14744936D02*
X11589229Y-14754460D01*
X11589229Y-14754460D02*
X11579705Y-14763984D01*
X11579705Y-14763984D02*
X11570182Y-14754460D01*
X11570182Y-14754460D02*
X11579705Y-14744936D01*
X11579705Y-14744936D02*
X11579705Y-14763984D01*
X11579705Y-14640174D02*
X11589229Y-14649698D01*
X11589229Y-14649698D02*
X11579705Y-14659222D01*
X11579705Y-14659222D02*
X11570182Y-14649698D01*
X11570182Y-14649698D02*
X11579705Y-14640174D01*
X11579705Y-14640174D02*
X11579705Y-14659222D01*
X9747500Y-14992500D02*
X9947500Y-15192500D01*
X9947500Y-14992500D02*
X9747500Y-15192500D01*
X10198753Y-15003031D02*
X10208277Y-14993508D01*
X10208277Y-14993508D02*
X10227324Y-14983984D01*
X10227324Y-14983984D02*
X10274944Y-14983984D01*
X10274944Y-14983984D02*
X10293991Y-14993508D01*
X10293991Y-14993508D02*
X10303515Y-15003031D01*
X10303515Y-15003031D02*
X10313039Y-15022079D01*
X10313039Y-15022079D02*
X10313039Y-15041127D01*
X10313039Y-15041127D02*
X10303515Y-15069698D01*
X10303515Y-15069698D02*
X10189229Y-15183984D01*
X10189229Y-15183984D02*
X10313039Y-15183984D01*
X10398753Y-15164936D02*
X10408277Y-15174460D01*
X10408277Y-15174460D02*
X10398753Y-15183984D01*
X10398753Y-15183984D02*
X10389229Y-15174460D01*
X10389229Y-15174460D02*
X10398753Y-15164936D01*
X10398753Y-15164936D02*
X10398753Y-15183984D01*
X10532086Y-14983984D02*
X10551134Y-14983984D01*
X10551134Y-14983984D02*
X10570182Y-14993508D01*
X10570182Y-14993508D02*
X10579705Y-15003031D01*
X10579705Y-15003031D02*
X10589229Y-15022079D01*
X10589229Y-15022079D02*
X10598753Y-15060174D01*
X10598753Y-15060174D02*
X10598753Y-15107793D01*
X10598753Y-15107793D02*
X10589229Y-15145888D01*
X10589229Y-15145888D02*
X10579705Y-15164936D01*
X10579705Y-15164936D02*
X10570182Y-15174460D01*
X10570182Y-15174460D02*
X10551134Y-15183984D01*
X10551134Y-15183984D02*
X10532086Y-15183984D01*
X10532086Y-15183984D02*
X10513039Y-15174460D01*
X10513039Y-15174460D02*
X10503515Y-15164936D01*
X10503515Y-15164936D02*
X10493991Y-15145888D01*
X10493991Y-15145888D02*
X10484467Y-15107793D01*
X10484467Y-15107793D02*
X10484467Y-15060174D01*
X10484467Y-15060174D02*
X10493991Y-15022079D01*
X10493991Y-15022079D02*
X10503515Y-15003031D01*
X10503515Y-15003031D02*
X10513039Y-14993508D01*
X10513039Y-14993508D02*
X10532086Y-14983984D01*
X10722563Y-14983984D02*
X10741610Y-14983984D01*
X10741610Y-14983984D02*
X10760658Y-14993508D01*
X10760658Y-14993508D02*
X10770182Y-15003031D01*
X10770182Y-15003031D02*
X10779705Y-15022079D01*
X10779705Y-15022079D02*
X10789229Y-15060174D01*
X10789229Y-15060174D02*
X10789229Y-15107793D01*
X10789229Y-15107793D02*
X10779705Y-15145888D01*
X10779705Y-15145888D02*
X10770182Y-15164936D01*
X10770182Y-15164936D02*
X10760658Y-15174460D01*
X10760658Y-15174460D02*
X10741610Y-15183984D01*
X10741610Y-15183984D02*
X10722563Y-15183984D01*
X10722563Y-15183984D02*
X10703515Y-15174460D01*
X10703515Y-15174460D02*
X10693991Y-15164936D01*
X10693991Y-15164936D02*
X10684467Y-15145888D01*
X10684467Y-15145888D02*
X10674944Y-15107793D01*
X10674944Y-15107793D02*
X10674944Y-15060174D01*
X10674944Y-15060174D02*
X10684467Y-15022079D01*
X10684467Y-15022079D02*
X10693991Y-15003031D01*
X10693991Y-15003031D02*
X10703515Y-14993508D01*
X10703515Y-14993508D02*
X10722563Y-14983984D01*
X10913039Y-14983984D02*
X10932086Y-14983984D01*
X10932086Y-14983984D02*
X10951134Y-14993508D01*
X10951134Y-14993508D02*
X10960658Y-15003031D01*
X10960658Y-15003031D02*
X10970182Y-15022079D01*
X10970182Y-15022079D02*
X10979705Y-15060174D01*
X10979705Y-15060174D02*
X10979705Y-15107793D01*
X10979705Y-15107793D02*
X10970182Y-15145888D01*
X10970182Y-15145888D02*
X10960658Y-15164936D01*
X10960658Y-15164936D02*
X10951134Y-15174460D01*
X10951134Y-15174460D02*
X10932086Y-15183984D01*
X10932086Y-15183984D02*
X10913039Y-15183984D01*
X10913039Y-15183984D02*
X10893991Y-15174460D01*
X10893991Y-15174460D02*
X10884467Y-15164936D01*
X10884467Y-15164936D02*
X10874944Y-15145888D01*
X10874944Y-15145888D02*
X10865420Y-15107793D01*
X10865420Y-15107793D02*
X10865420Y-15060174D01*
X10865420Y-15060174D02*
X10874944Y-15022079D01*
X10874944Y-15022079D02*
X10884467Y-15003031D01*
X10884467Y-15003031D02*
X10893991Y-14993508D01*
X10893991Y-14993508D02*
X10913039Y-14983984D01*
X11065420Y-15183984D02*
X11065420Y-15050650D01*
X11065420Y-15069698D02*
X11074944Y-15060174D01*
X11074944Y-15060174D02*
X11093991Y-15050650D01*
X11093991Y-15050650D02*
X11122563Y-15050650D01*
X11122563Y-15050650D02*
X11141610Y-15060174D01*
X11141610Y-15060174D02*
X11151134Y-15079222D01*
X11151134Y-15079222D02*
X11151134Y-15183984D01*
X11151134Y-15079222D02*
X11160658Y-15060174D01*
X11160658Y-15060174D02*
X11179705Y-15050650D01*
X11179705Y-15050650D02*
X11208277Y-15050650D01*
X11208277Y-15050650D02*
X11227324Y-15060174D01*
X11227324Y-15060174D02*
X11236848Y-15079222D01*
X11236848Y-15079222D02*
X11236848Y-15183984D01*
X11332086Y-15183984D02*
X11332086Y-15050650D01*
X11332086Y-15069698D02*
X11341610Y-15060174D01*
X11341610Y-15060174D02*
X11360658Y-15050650D01*
X11360658Y-15050650D02*
X11389229Y-15050650D01*
X11389229Y-15050650D02*
X11408277Y-15060174D01*
X11408277Y-15060174D02*
X11417801Y-15079222D01*
X11417801Y-15079222D02*
X11417801Y-15183984D01*
X11417801Y-15079222D02*
X11427324Y-15060174D01*
X11427324Y-15060174D02*
X11446372Y-15050650D01*
X11446372Y-15050650D02*
X11474943Y-15050650D01*
X11474943Y-15050650D02*
X11493991Y-15060174D01*
X11493991Y-15060174D02*
X11503515Y-15079222D01*
X11503515Y-15079222D02*
X11503515Y-15183984D01*
X11893991Y-14974460D02*
X11722563Y-15231603D01*
X12151134Y-14983984D02*
X12170182Y-14983984D01*
X12170182Y-14983984D02*
X12189229Y-14993508D01*
X12189229Y-14993508D02*
X12198753Y-15003031D01*
X12198753Y-15003031D02*
X12208277Y-15022079D01*
X12208277Y-15022079D02*
X12217801Y-15060174D01*
X12217801Y-15060174D02*
X12217801Y-15107793D01*
X12217801Y-15107793D02*
X12208277Y-15145888D01*
X12208277Y-15145888D02*
X12198753Y-15164936D01*
X12198753Y-15164936D02*
X12189229Y-15174460D01*
X12189229Y-15174460D02*
X12170182Y-15183984D01*
X12170182Y-15183984D02*
X12151134Y-15183984D01*
X12151134Y-15183984D02*
X12132086Y-15174460D01*
X12132086Y-15174460D02*
X12122563Y-15164936D01*
X12122563Y-15164936D02*
X12113039Y-15145888D01*
X12113039Y-15145888D02*
X12103515Y-15107793D01*
X12103515Y-15107793D02*
X12103515Y-15060174D01*
X12103515Y-15060174D02*
X12113039Y-15022079D01*
X12113039Y-15022079D02*
X12122563Y-15003031D01*
X12122563Y-15003031D02*
X12132086Y-14993508D01*
X12132086Y-14993508D02*
X12151134Y-14983984D01*
X12303515Y-15164936D02*
X12313039Y-15174460D01*
X12313039Y-15174460D02*
X12303515Y-15183984D01*
X12303515Y-15183984D02*
X12293991Y-15174460D01*
X12293991Y-15174460D02*
X12303515Y-15164936D01*
X12303515Y-15164936D02*
X12303515Y-15183984D01*
X12436848Y-14983984D02*
X12455896Y-14983984D01*
X12455896Y-14983984D02*
X12474944Y-14993508D01*
X12474944Y-14993508D02*
X12484467Y-15003031D01*
X12484467Y-15003031D02*
X12493991Y-15022079D01*
X12493991Y-15022079D02*
X12503515Y-15060174D01*
X12503515Y-15060174D02*
X12503515Y-15107793D01*
X12503515Y-15107793D02*
X12493991Y-15145888D01*
X12493991Y-15145888D02*
X12484467Y-15164936D01*
X12484467Y-15164936D02*
X12474944Y-15174460D01*
X12474944Y-15174460D02*
X12455896Y-15183984D01*
X12455896Y-15183984D02*
X12436848Y-15183984D01*
X12436848Y-15183984D02*
X12417801Y-15174460D01*
X12417801Y-15174460D02*
X12408277Y-15164936D01*
X12408277Y-15164936D02*
X12398753Y-15145888D01*
X12398753Y-15145888D02*
X12389229Y-15107793D01*
X12389229Y-15107793D02*
X12389229Y-15060174D01*
X12389229Y-15060174D02*
X12398753Y-15022079D01*
X12398753Y-15022079D02*
X12408277Y-15003031D01*
X12408277Y-15003031D02*
X12417801Y-14993508D01*
X12417801Y-14993508D02*
X12436848Y-14983984D01*
X12570182Y-14983984D02*
X12703515Y-14983984D01*
X12703515Y-14983984D02*
X12617801Y-15183984D01*
X12808277Y-15069698D02*
X12789229Y-15060174D01*
X12789229Y-15060174D02*
X12779706Y-15050650D01*
X12779706Y-15050650D02*
X12770182Y-15031603D01*
X12770182Y-15031603D02*
X12770182Y-15022079D01*
X12770182Y-15022079D02*
X12779706Y-15003031D01*
X12779706Y-15003031D02*
X12789229Y-14993508D01*
X12789229Y-14993508D02*
X12808277Y-14983984D01*
X12808277Y-14983984D02*
X12846372Y-14983984D01*
X12846372Y-14983984D02*
X12865420Y-14993508D01*
X12865420Y-14993508D02*
X12874944Y-15003031D01*
X12874944Y-15003031D02*
X12884467Y-15022079D01*
X12884467Y-15022079D02*
X12884467Y-15031603D01*
X12884467Y-15031603D02*
X12874944Y-15050650D01*
X12874944Y-15050650D02*
X12865420Y-15060174D01*
X12865420Y-15060174D02*
X12846372Y-15069698D01*
X12846372Y-15069698D02*
X12808277Y-15069698D01*
X12808277Y-15069698D02*
X12789229Y-15079222D01*
X12789229Y-15079222D02*
X12779706Y-15088746D01*
X12779706Y-15088746D02*
X12770182Y-15107793D01*
X12770182Y-15107793D02*
X12770182Y-15145888D01*
X12770182Y-15145888D02*
X12779706Y-15164936D01*
X12779706Y-15164936D02*
X12789229Y-15174460D01*
X12789229Y-15174460D02*
X12808277Y-15183984D01*
X12808277Y-15183984D02*
X12846372Y-15183984D01*
X12846372Y-15183984D02*
X12865420Y-15174460D01*
X12865420Y-15174460D02*
X12874944Y-15164936D01*
X12874944Y-15164936D02*
X12884467Y-15145888D01*
X12884467Y-15145888D02*
X12884467Y-15107793D01*
X12884467Y-15107793D02*
X12874944Y-15088746D01*
X12874944Y-15088746D02*
X12865420Y-15079222D01*
X12865420Y-15079222D02*
X12846372Y-15069698D01*
X12951134Y-14983984D02*
X13084467Y-14983984D01*
X13084467Y-14983984D02*
X12998753Y-15183984D01*
X13151134Y-14983984D02*
X13151134Y-15022079D01*
X13227325Y-14983984D02*
X13227325Y-15022079D01*
X13522563Y-15260174D02*
X13513039Y-15250650D01*
X13513039Y-15250650D02*
X13493991Y-15222079D01*
X13493991Y-15222079D02*
X13484468Y-15203031D01*
X13484468Y-15203031D02*
X13474944Y-15174460D01*
X13474944Y-15174460D02*
X13465420Y-15126841D01*
X13465420Y-15126841D02*
X13465420Y-15088746D01*
X13465420Y-15088746D02*
X13474944Y-15041127D01*
X13474944Y-15041127D02*
X13484468Y-15012555D01*
X13484468Y-15012555D02*
X13493991Y-14993508D01*
X13493991Y-14993508D02*
X13513039Y-14964936D01*
X13513039Y-14964936D02*
X13522563Y-14955412D01*
X13703515Y-15183984D02*
X13589229Y-15183984D01*
X13646372Y-15183984D02*
X13646372Y-14983984D01*
X13646372Y-14983984D02*
X13627325Y-15012555D01*
X13627325Y-15012555D02*
X13608277Y-15031603D01*
X13608277Y-15031603D02*
X13589229Y-15041127D01*
X13941610Y-15183984D02*
X13941610Y-14983984D01*
X14027325Y-15183984D02*
X14027325Y-15079222D01*
X14027325Y-15079222D02*
X14017801Y-15060174D01*
X14017801Y-15060174D02*
X13998753Y-15050650D01*
X13998753Y-15050650D02*
X13970182Y-15050650D01*
X13970182Y-15050650D02*
X13951134Y-15060174D01*
X13951134Y-15060174D02*
X13941610Y-15069698D01*
X14151134Y-15183984D02*
X14132087Y-15174460D01*
X14132087Y-15174460D02*
X14122563Y-15164936D01*
X14122563Y-15164936D02*
X14113039Y-15145888D01*
X14113039Y-15145888D02*
X14113039Y-15088746D01*
X14113039Y-15088746D02*
X14122563Y-15069698D01*
X14122563Y-15069698D02*
X14132087Y-15060174D01*
X14132087Y-15060174D02*
X14151134Y-15050650D01*
X14151134Y-15050650D02*
X14179706Y-15050650D01*
X14179706Y-15050650D02*
X14198753Y-15060174D01*
X14198753Y-15060174D02*
X14208277Y-15069698D01*
X14208277Y-15069698D02*
X14217801Y-15088746D01*
X14217801Y-15088746D02*
X14217801Y-15145888D01*
X14217801Y-15145888D02*
X14208277Y-15164936D01*
X14208277Y-15164936D02*
X14198753Y-15174460D01*
X14198753Y-15174460D02*
X14179706Y-15183984D01*
X14179706Y-15183984D02*
X14151134Y-15183984D01*
X14332087Y-15183984D02*
X14313039Y-15174460D01*
X14313039Y-15174460D02*
X14303515Y-15155412D01*
X14303515Y-15155412D02*
X14303515Y-14983984D01*
X14484468Y-15174460D02*
X14465420Y-15183984D01*
X14465420Y-15183984D02*
X14427325Y-15183984D01*
X14427325Y-15183984D02*
X14408277Y-15174460D01*
X14408277Y-15174460D02*
X14398753Y-15155412D01*
X14398753Y-15155412D02*
X14398753Y-15079222D01*
X14398753Y-15079222D02*
X14408277Y-15060174D01*
X14408277Y-15060174D02*
X14427325Y-15050650D01*
X14427325Y-15050650D02*
X14465420Y-15050650D01*
X14465420Y-15050650D02*
X14484468Y-15060174D01*
X14484468Y-15060174D02*
X14493991Y-15079222D01*
X14493991Y-15079222D02*
X14493991Y-15098269D01*
X14493991Y-15098269D02*
X14398753Y-15117317D01*
X14560658Y-15260174D02*
X14570182Y-15250650D01*
X14570182Y-15250650D02*
X14589230Y-15222079D01*
X14589230Y-15222079D02*
X14598753Y-15203031D01*
X14598753Y-15203031D02*
X14608277Y-15174460D01*
X14608277Y-15174460D02*
X14617801Y-15126841D01*
X14617801Y-15126841D02*
X14617801Y-15088746D01*
X14617801Y-15088746D02*
X14608277Y-15041127D01*
X14608277Y-15041127D02*
X14598753Y-15012555D01*
X14598753Y-15012555D02*
X14589230Y-14993508D01*
X14589230Y-14993508D02*
X14570182Y-14964936D01*
X14570182Y-14964936D02*
X14560658Y-14955412D01*
X14922563Y-15260174D02*
X14913039Y-15250650D01*
X14913039Y-15250650D02*
X14893991Y-15222079D01*
X14893991Y-15222079D02*
X14884468Y-15203031D01*
X14884468Y-15203031D02*
X14874944Y-15174460D01*
X14874944Y-15174460D02*
X14865420Y-15126841D01*
X14865420Y-15126841D02*
X14865420Y-15088746D01*
X14865420Y-15088746D02*
X14874944Y-15041127D01*
X14874944Y-15041127D02*
X14884468Y-15012555D01*
X14884468Y-15012555D02*
X14893991Y-14993508D01*
X14893991Y-14993508D02*
X14913039Y-14964936D01*
X14913039Y-14964936D02*
X14922563Y-14955412D01*
X14998753Y-15050650D02*
X14998753Y-15183984D01*
X14998753Y-15069698D02*
X15008277Y-15060174D01*
X15008277Y-15060174D02*
X15027325Y-15050650D01*
X15027325Y-15050650D02*
X15055896Y-15050650D01*
X15055896Y-15050650D02*
X15074944Y-15060174D01*
X15074944Y-15060174D02*
X15084468Y-15079222D01*
X15084468Y-15079222D02*
X15084468Y-15183984D01*
X15208277Y-15183984D02*
X15189230Y-15174460D01*
X15189230Y-15174460D02*
X15179706Y-15164936D01*
X15179706Y-15164936D02*
X15170182Y-15145888D01*
X15170182Y-15145888D02*
X15170182Y-15088746D01*
X15170182Y-15088746D02*
X15179706Y-15069698D01*
X15179706Y-15069698D02*
X15189230Y-15060174D01*
X15189230Y-15060174D02*
X15208277Y-15050650D01*
X15208277Y-15050650D02*
X15236849Y-15050650D01*
X15236849Y-15050650D02*
X15255896Y-15060174D01*
X15255896Y-15060174D02*
X15265420Y-15069698D01*
X15265420Y-15069698D02*
X15274944Y-15088746D01*
X15274944Y-15088746D02*
X15274944Y-15145888D01*
X15274944Y-15145888D02*
X15265420Y-15164936D01*
X15265420Y-15164936D02*
X15255896Y-15174460D01*
X15255896Y-15174460D02*
X15236849Y-15183984D01*
X15236849Y-15183984D02*
X15208277Y-15183984D01*
X15332087Y-15050650D02*
X15408277Y-15050650D01*
X15360658Y-14983984D02*
X15360658Y-15155412D01*
X15360658Y-15155412D02*
X15370182Y-15174460D01*
X15370182Y-15174460D02*
X15389230Y-15183984D01*
X15389230Y-15183984D02*
X15408277Y-15183984D01*
X15627325Y-15050650D02*
X15627325Y-15250650D01*
X15627325Y-15060174D02*
X15646372Y-15050650D01*
X15646372Y-15050650D02*
X15684468Y-15050650D01*
X15684468Y-15050650D02*
X15703515Y-15060174D01*
X15703515Y-15060174D02*
X15713039Y-15069698D01*
X15713039Y-15069698D02*
X15722563Y-15088746D01*
X15722563Y-15088746D02*
X15722563Y-15145888D01*
X15722563Y-15145888D02*
X15713039Y-15164936D01*
X15713039Y-15164936D02*
X15703515Y-15174460D01*
X15703515Y-15174460D02*
X15684468Y-15183984D01*
X15684468Y-15183984D02*
X15646372Y-15183984D01*
X15646372Y-15183984D02*
X15627325Y-15174460D01*
X15836849Y-15183984D02*
X15817801Y-15174460D01*
X15817801Y-15174460D02*
X15808277Y-15155412D01*
X15808277Y-15155412D02*
X15808277Y-14983984D01*
X15998753Y-15183984D02*
X15998753Y-15079222D01*
X15998753Y-15079222D02*
X15989230Y-15060174D01*
X15989230Y-15060174D02*
X15970182Y-15050650D01*
X15970182Y-15050650D02*
X15932087Y-15050650D01*
X15932087Y-15050650D02*
X15913039Y-15060174D01*
X15998753Y-15174460D02*
X15979706Y-15183984D01*
X15979706Y-15183984D02*
X15932087Y-15183984D01*
X15932087Y-15183984D02*
X15913039Y-15174460D01*
X15913039Y-15174460D02*
X15903515Y-15155412D01*
X15903515Y-15155412D02*
X15903515Y-15136365D01*
X15903515Y-15136365D02*
X15913039Y-15117317D01*
X15913039Y-15117317D02*
X15932087Y-15107793D01*
X15932087Y-15107793D02*
X15979706Y-15107793D01*
X15979706Y-15107793D02*
X15998753Y-15098269D01*
X16065420Y-15050650D02*
X16141611Y-15050650D01*
X16093992Y-14983984D02*
X16093992Y-15155412D01*
X16093992Y-15155412D02*
X16103515Y-15174460D01*
X16103515Y-15174460D02*
X16122563Y-15183984D01*
X16122563Y-15183984D02*
X16141611Y-15183984D01*
X16284468Y-15174460D02*
X16265420Y-15183984D01*
X16265420Y-15183984D02*
X16227325Y-15183984D01*
X16227325Y-15183984D02*
X16208277Y-15174460D01*
X16208277Y-15174460D02*
X16198753Y-15155412D01*
X16198753Y-15155412D02*
X16198753Y-15079222D01*
X16198753Y-15079222D02*
X16208277Y-15060174D01*
X16208277Y-15060174D02*
X16227325Y-15050650D01*
X16227325Y-15050650D02*
X16265420Y-15050650D01*
X16265420Y-15050650D02*
X16284468Y-15060174D01*
X16284468Y-15060174D02*
X16293992Y-15079222D01*
X16293992Y-15079222D02*
X16293992Y-15098269D01*
X16293992Y-15098269D02*
X16198753Y-15117317D01*
X16465420Y-15183984D02*
X16465420Y-14983984D01*
X16465420Y-15174460D02*
X16446373Y-15183984D01*
X16446373Y-15183984D02*
X16408277Y-15183984D01*
X16408277Y-15183984D02*
X16389230Y-15174460D01*
X16389230Y-15174460D02*
X16379706Y-15164936D01*
X16379706Y-15164936D02*
X16370182Y-15145888D01*
X16370182Y-15145888D02*
X16370182Y-15088746D01*
X16370182Y-15088746D02*
X16379706Y-15069698D01*
X16379706Y-15069698D02*
X16389230Y-15060174D01*
X16389230Y-15060174D02*
X16408277Y-15050650D01*
X16408277Y-15050650D02*
X16446373Y-15050650D01*
X16446373Y-15050650D02*
X16465420Y-15060174D01*
X16541611Y-15260174D02*
X16551134Y-15250650D01*
X16551134Y-15250650D02*
X16570182Y-15222079D01*
X16570182Y-15222079D02*
X16579706Y-15203031D01*
X16579706Y-15203031D02*
X16589230Y-15174460D01*
X16589230Y-15174460D02*
X16598753Y-15126841D01*
X16598753Y-15126841D02*
X16598753Y-15088746D01*
X16598753Y-15088746D02*
X16589230Y-15041127D01*
X16589230Y-15041127D02*
X16579706Y-15012555D01*
X16579706Y-15012555D02*
X16570182Y-14993508D01*
X16570182Y-14993508D02*
X16551134Y-14964936D01*
X16551134Y-14964936D02*
X16541611Y-14955412D01*
X9947500Y-15412500D02*
G75*
G02*
X9747500Y-15412500I-100000J0D01*
G01*
X9747500Y-15412500D02*
G75*
G02*
X9947500Y-15412500I100000J0D01*
G01*
X10189229Y-15303984D02*
X10313039Y-15303984D01*
X10313039Y-15303984D02*
X10246372Y-15380174D01*
X10246372Y-15380174D02*
X10274944Y-15380174D01*
X10274944Y-15380174D02*
X10293991Y-15389698D01*
X10293991Y-15389698D02*
X10303515Y-15399222D01*
X10303515Y-15399222D02*
X10313039Y-15418269D01*
X10313039Y-15418269D02*
X10313039Y-15465888D01*
X10313039Y-15465888D02*
X10303515Y-15484936D01*
X10303515Y-15484936D02*
X10293991Y-15494460D01*
X10293991Y-15494460D02*
X10274944Y-15503984D01*
X10274944Y-15503984D02*
X10217801Y-15503984D01*
X10217801Y-15503984D02*
X10198753Y-15494460D01*
X10198753Y-15494460D02*
X10189229Y-15484936D01*
X10398753Y-15484936D02*
X10408277Y-15494460D01*
X10408277Y-15494460D02*
X10398753Y-15503984D01*
X10398753Y-15503984D02*
X10389229Y-15494460D01*
X10389229Y-15494460D02*
X10398753Y-15484936D01*
X10398753Y-15484936D02*
X10398753Y-15503984D01*
X10484467Y-15323031D02*
X10493991Y-15313508D01*
X10493991Y-15313508D02*
X10513039Y-15303984D01*
X10513039Y-15303984D02*
X10560658Y-15303984D01*
X10560658Y-15303984D02*
X10579705Y-15313508D01*
X10579705Y-15313508D02*
X10589229Y-15323031D01*
X10589229Y-15323031D02*
X10598753Y-15342079D01*
X10598753Y-15342079D02*
X10598753Y-15361127D01*
X10598753Y-15361127D02*
X10589229Y-15389698D01*
X10589229Y-15389698D02*
X10474944Y-15503984D01*
X10474944Y-15503984D02*
X10598753Y-15503984D01*
X10722563Y-15303984D02*
X10741610Y-15303984D01*
X10741610Y-15303984D02*
X10760658Y-15313508D01*
X10760658Y-15313508D02*
X10770182Y-15323031D01*
X10770182Y-15323031D02*
X10779705Y-15342079D01*
X10779705Y-15342079D02*
X10789229Y-15380174D01*
X10789229Y-15380174D02*
X10789229Y-15427793D01*
X10789229Y-15427793D02*
X10779705Y-15465888D01*
X10779705Y-15465888D02*
X10770182Y-15484936D01*
X10770182Y-15484936D02*
X10760658Y-15494460D01*
X10760658Y-15494460D02*
X10741610Y-15503984D01*
X10741610Y-15503984D02*
X10722563Y-15503984D01*
X10722563Y-15503984D02*
X10703515Y-15494460D01*
X10703515Y-15494460D02*
X10693991Y-15484936D01*
X10693991Y-15484936D02*
X10684467Y-15465888D01*
X10684467Y-15465888D02*
X10674944Y-15427793D01*
X10674944Y-15427793D02*
X10674944Y-15380174D01*
X10674944Y-15380174D02*
X10684467Y-15342079D01*
X10684467Y-15342079D02*
X10693991Y-15323031D01*
X10693991Y-15323031D02*
X10703515Y-15313508D01*
X10703515Y-15313508D02*
X10722563Y-15303984D01*
X10913039Y-15303984D02*
X10932086Y-15303984D01*
X10932086Y-15303984D02*
X10951134Y-15313508D01*
X10951134Y-15313508D02*
X10960658Y-15323031D01*
X10960658Y-15323031D02*
X10970182Y-15342079D01*
X10970182Y-15342079D02*
X10979705Y-15380174D01*
X10979705Y-15380174D02*
X10979705Y-15427793D01*
X10979705Y-15427793D02*
X10970182Y-15465888D01*
X10970182Y-15465888D02*
X10960658Y-15484936D01*
X10960658Y-15484936D02*
X10951134Y-15494460D01*
X10951134Y-15494460D02*
X10932086Y-15503984D01*
X10932086Y-15503984D02*
X10913039Y-15503984D01*
X10913039Y-15503984D02*
X10893991Y-15494460D01*
X10893991Y-15494460D02*
X10884467Y-15484936D01*
X10884467Y-15484936D02*
X10874944Y-15465888D01*
X10874944Y-15465888D02*
X10865420Y-15427793D01*
X10865420Y-15427793D02*
X10865420Y-15380174D01*
X10865420Y-15380174D02*
X10874944Y-15342079D01*
X10874944Y-15342079D02*
X10884467Y-15323031D01*
X10884467Y-15323031D02*
X10893991Y-15313508D01*
X10893991Y-15313508D02*
X10913039Y-15303984D01*
X11065420Y-15503984D02*
X11065420Y-15370650D01*
X11065420Y-15389698D02*
X11074944Y-15380174D01*
X11074944Y-15380174D02*
X11093991Y-15370650D01*
X11093991Y-15370650D02*
X11122563Y-15370650D01*
X11122563Y-15370650D02*
X11141610Y-15380174D01*
X11141610Y-15380174D02*
X11151134Y-15399222D01*
X11151134Y-15399222D02*
X11151134Y-15503984D01*
X11151134Y-15399222D02*
X11160658Y-15380174D01*
X11160658Y-15380174D02*
X11179705Y-15370650D01*
X11179705Y-15370650D02*
X11208277Y-15370650D01*
X11208277Y-15370650D02*
X11227324Y-15380174D01*
X11227324Y-15380174D02*
X11236848Y-15399222D01*
X11236848Y-15399222D02*
X11236848Y-15503984D01*
X11332086Y-15503984D02*
X11332086Y-15370650D01*
X11332086Y-15389698D02*
X11341610Y-15380174D01*
X11341610Y-15380174D02*
X11360658Y-15370650D01*
X11360658Y-15370650D02*
X11389229Y-15370650D01*
X11389229Y-15370650D02*
X11408277Y-15380174D01*
X11408277Y-15380174D02*
X11417801Y-15399222D01*
X11417801Y-15399222D02*
X11417801Y-15503984D01*
X11417801Y-15399222D02*
X11427324Y-15380174D01*
X11427324Y-15380174D02*
X11446372Y-15370650D01*
X11446372Y-15370650D02*
X11474943Y-15370650D01*
X11474943Y-15370650D02*
X11493991Y-15380174D01*
X11493991Y-15380174D02*
X11503515Y-15399222D01*
X11503515Y-15399222D02*
X11503515Y-15503984D01*
X11893991Y-15294460D02*
X11722563Y-15551603D01*
X12151134Y-15303984D02*
X12170182Y-15303984D01*
X12170182Y-15303984D02*
X12189229Y-15313508D01*
X12189229Y-15313508D02*
X12198753Y-15323031D01*
X12198753Y-15323031D02*
X12208277Y-15342079D01*
X12208277Y-15342079D02*
X12217801Y-15380174D01*
X12217801Y-15380174D02*
X12217801Y-15427793D01*
X12217801Y-15427793D02*
X12208277Y-15465888D01*
X12208277Y-15465888D02*
X12198753Y-15484936D01*
X12198753Y-15484936D02*
X12189229Y-15494460D01*
X12189229Y-15494460D02*
X12170182Y-15503984D01*
X12170182Y-15503984D02*
X12151134Y-15503984D01*
X12151134Y-15503984D02*
X12132086Y-15494460D01*
X12132086Y-15494460D02*
X12122563Y-15484936D01*
X12122563Y-15484936D02*
X12113039Y-15465888D01*
X12113039Y-15465888D02*
X12103515Y-15427793D01*
X12103515Y-15427793D02*
X12103515Y-15380174D01*
X12103515Y-15380174D02*
X12113039Y-15342079D01*
X12113039Y-15342079D02*
X12122563Y-15323031D01*
X12122563Y-15323031D02*
X12132086Y-15313508D01*
X12132086Y-15313508D02*
X12151134Y-15303984D01*
X12303515Y-15484936D02*
X12313039Y-15494460D01*
X12313039Y-15494460D02*
X12303515Y-15503984D01*
X12303515Y-15503984D02*
X12293991Y-15494460D01*
X12293991Y-15494460D02*
X12303515Y-15484936D01*
X12303515Y-15484936D02*
X12303515Y-15503984D01*
X12503515Y-15503984D02*
X12389229Y-15503984D01*
X12446372Y-15503984D02*
X12446372Y-15303984D01*
X12446372Y-15303984D02*
X12427325Y-15332555D01*
X12427325Y-15332555D02*
X12408277Y-15351603D01*
X12408277Y-15351603D02*
X12389229Y-15361127D01*
X12579706Y-15323031D02*
X12589229Y-15313508D01*
X12589229Y-15313508D02*
X12608277Y-15303984D01*
X12608277Y-15303984D02*
X12655896Y-15303984D01*
X12655896Y-15303984D02*
X12674944Y-15313508D01*
X12674944Y-15313508D02*
X12684467Y-15323031D01*
X12684467Y-15323031D02*
X12693991Y-15342079D01*
X12693991Y-15342079D02*
X12693991Y-15361127D01*
X12693991Y-15361127D02*
X12684467Y-15389698D01*
X12684467Y-15389698D02*
X12570182Y-15503984D01*
X12570182Y-15503984D02*
X12693991Y-15503984D01*
X12865420Y-15303984D02*
X12827325Y-15303984D01*
X12827325Y-15303984D02*
X12808277Y-15313508D01*
X12808277Y-15313508D02*
X12798753Y-15323031D01*
X12798753Y-15323031D02*
X12779706Y-15351603D01*
X12779706Y-15351603D02*
X12770182Y-15389698D01*
X12770182Y-15389698D02*
X12770182Y-15465888D01*
X12770182Y-15465888D02*
X12779706Y-15484936D01*
X12779706Y-15484936D02*
X12789229Y-15494460D01*
X12789229Y-15494460D02*
X12808277Y-15503984D01*
X12808277Y-15503984D02*
X12846372Y-15503984D01*
X12846372Y-15503984D02*
X12865420Y-15494460D01*
X12865420Y-15494460D02*
X12874944Y-15484936D01*
X12874944Y-15484936D02*
X12884467Y-15465888D01*
X12884467Y-15465888D02*
X12884467Y-15418269D01*
X12884467Y-15418269D02*
X12874944Y-15399222D01*
X12874944Y-15399222D02*
X12865420Y-15389698D01*
X12865420Y-15389698D02*
X12846372Y-15380174D01*
X12846372Y-15380174D02*
X12808277Y-15380174D01*
X12808277Y-15380174D02*
X12789229Y-15389698D01*
X12789229Y-15389698D02*
X12779706Y-15399222D01*
X12779706Y-15399222D02*
X12770182Y-15418269D01*
X13008277Y-15303984D02*
X13027325Y-15303984D01*
X13027325Y-15303984D02*
X13046372Y-15313508D01*
X13046372Y-15313508D02*
X13055896Y-15323031D01*
X13055896Y-15323031D02*
X13065420Y-15342079D01*
X13065420Y-15342079D02*
X13074944Y-15380174D01*
X13074944Y-15380174D02*
X13074944Y-15427793D01*
X13074944Y-15427793D02*
X13065420Y-15465888D01*
X13065420Y-15465888D02*
X13055896Y-15484936D01*
X13055896Y-15484936D02*
X13046372Y-15494460D01*
X13046372Y-15494460D02*
X13027325Y-15503984D01*
X13027325Y-15503984D02*
X13008277Y-15503984D01*
X13008277Y-15503984D02*
X12989229Y-15494460D01*
X12989229Y-15494460D02*
X12979706Y-15484936D01*
X12979706Y-15484936D02*
X12970182Y-15465888D01*
X12970182Y-15465888D02*
X12960658Y-15427793D01*
X12960658Y-15427793D02*
X12960658Y-15380174D01*
X12960658Y-15380174D02*
X12970182Y-15342079D01*
X12970182Y-15342079D02*
X12979706Y-15323031D01*
X12979706Y-15323031D02*
X12989229Y-15313508D01*
X12989229Y-15313508D02*
X13008277Y-15303984D01*
X13151134Y-15303984D02*
X13151134Y-15342079D01*
X13227325Y-15303984D02*
X13227325Y-15342079D01*
X13522563Y-15580174D02*
X13513039Y-15570650D01*
X13513039Y-15570650D02*
X13493991Y-15542079D01*
X13493991Y-15542079D02*
X13484468Y-15523031D01*
X13484468Y-15523031D02*
X13474944Y-15494460D01*
X13474944Y-15494460D02*
X13465420Y-15446841D01*
X13465420Y-15446841D02*
X13465420Y-15408746D01*
X13465420Y-15408746D02*
X13474944Y-15361127D01*
X13474944Y-15361127D02*
X13484468Y-15332555D01*
X13484468Y-15332555D02*
X13493991Y-15313508D01*
X13493991Y-15313508D02*
X13513039Y-15284936D01*
X13513039Y-15284936D02*
X13522563Y-15275412D01*
X13684468Y-15370650D02*
X13684468Y-15503984D01*
X13636848Y-15294460D02*
X13589229Y-15437317D01*
X13589229Y-15437317D02*
X13713039Y-15437317D01*
X13941610Y-15503984D02*
X13941610Y-15303984D01*
X14027325Y-15503984D02*
X14027325Y-15399222D01*
X14027325Y-15399222D02*
X14017801Y-15380174D01*
X14017801Y-15380174D02*
X13998753Y-15370650D01*
X13998753Y-15370650D02*
X13970182Y-15370650D01*
X13970182Y-15370650D02*
X13951134Y-15380174D01*
X13951134Y-15380174D02*
X13941610Y-15389698D01*
X14151134Y-15503984D02*
X14132087Y-15494460D01*
X14132087Y-15494460D02*
X14122563Y-15484936D01*
X14122563Y-15484936D02*
X14113039Y-15465888D01*
X14113039Y-15465888D02*
X14113039Y-15408746D01*
X14113039Y-15408746D02*
X14122563Y-15389698D01*
X14122563Y-15389698D02*
X14132087Y-15380174D01*
X14132087Y-15380174D02*
X14151134Y-15370650D01*
X14151134Y-15370650D02*
X14179706Y-15370650D01*
X14179706Y-15370650D02*
X14198753Y-15380174D01*
X14198753Y-15380174D02*
X14208277Y-15389698D01*
X14208277Y-15389698D02*
X14217801Y-15408746D01*
X14217801Y-15408746D02*
X14217801Y-15465888D01*
X14217801Y-15465888D02*
X14208277Y-15484936D01*
X14208277Y-15484936D02*
X14198753Y-15494460D01*
X14198753Y-15494460D02*
X14179706Y-15503984D01*
X14179706Y-15503984D02*
X14151134Y-15503984D01*
X14332087Y-15503984D02*
X14313039Y-15494460D01*
X14313039Y-15494460D02*
X14303515Y-15475412D01*
X14303515Y-15475412D02*
X14303515Y-15303984D01*
X14484468Y-15494460D02*
X14465420Y-15503984D01*
X14465420Y-15503984D02*
X14427325Y-15503984D01*
X14427325Y-15503984D02*
X14408277Y-15494460D01*
X14408277Y-15494460D02*
X14398753Y-15475412D01*
X14398753Y-15475412D02*
X14398753Y-15399222D01*
X14398753Y-15399222D02*
X14408277Y-15380174D01*
X14408277Y-15380174D02*
X14427325Y-15370650D01*
X14427325Y-15370650D02*
X14465420Y-15370650D01*
X14465420Y-15370650D02*
X14484468Y-15380174D01*
X14484468Y-15380174D02*
X14493991Y-15399222D01*
X14493991Y-15399222D02*
X14493991Y-15418269D01*
X14493991Y-15418269D02*
X14398753Y-15437317D01*
X14570182Y-15494460D02*
X14589230Y-15503984D01*
X14589230Y-15503984D02*
X14627325Y-15503984D01*
X14627325Y-15503984D02*
X14646372Y-15494460D01*
X14646372Y-15494460D02*
X14655896Y-15475412D01*
X14655896Y-15475412D02*
X14655896Y-15465888D01*
X14655896Y-15465888D02*
X14646372Y-15446841D01*
X14646372Y-15446841D02*
X14627325Y-15437317D01*
X14627325Y-15437317D02*
X14598753Y-15437317D01*
X14598753Y-15437317D02*
X14579706Y-15427793D01*
X14579706Y-15427793D02*
X14570182Y-15408746D01*
X14570182Y-15408746D02*
X14570182Y-15399222D01*
X14570182Y-15399222D02*
X14579706Y-15380174D01*
X14579706Y-15380174D02*
X14598753Y-15370650D01*
X14598753Y-15370650D02*
X14627325Y-15370650D01*
X14627325Y-15370650D02*
X14646372Y-15380174D01*
X14722563Y-15580174D02*
X14732087Y-15570650D01*
X14732087Y-15570650D02*
X14751134Y-15542079D01*
X14751134Y-15542079D02*
X14760658Y-15523031D01*
X14760658Y-15523031D02*
X14770182Y-15494460D01*
X14770182Y-15494460D02*
X14779706Y-15446841D01*
X14779706Y-15446841D02*
X14779706Y-15408746D01*
X14779706Y-15408746D02*
X14770182Y-15361127D01*
X14770182Y-15361127D02*
X14760658Y-15332555D01*
X14760658Y-15332555D02*
X14751134Y-15313508D01*
X14751134Y-15313508D02*
X14732087Y-15284936D01*
X14732087Y-15284936D02*
X14722563Y-15275412D01*
X15084468Y-15580174D02*
X15074944Y-15570650D01*
X15074944Y-15570650D02*
X15055896Y-15542079D01*
X15055896Y-15542079D02*
X15046372Y-15523031D01*
X15046372Y-15523031D02*
X15036849Y-15494460D01*
X15036849Y-15494460D02*
X15027325Y-15446841D01*
X15027325Y-15446841D02*
X15027325Y-15408746D01*
X15027325Y-15408746D02*
X15036849Y-15361127D01*
X15036849Y-15361127D02*
X15046372Y-15332555D01*
X15046372Y-15332555D02*
X15055896Y-15313508D01*
X15055896Y-15313508D02*
X15074944Y-15284936D01*
X15074944Y-15284936D02*
X15084468Y-15275412D01*
X15160658Y-15370650D02*
X15160658Y-15503984D01*
X15160658Y-15389698D02*
X15170182Y-15380174D01*
X15170182Y-15380174D02*
X15189230Y-15370650D01*
X15189230Y-15370650D02*
X15217801Y-15370650D01*
X15217801Y-15370650D02*
X15236849Y-15380174D01*
X15236849Y-15380174D02*
X15246372Y-15399222D01*
X15246372Y-15399222D02*
X15246372Y-15503984D01*
X15370182Y-15503984D02*
X15351134Y-15494460D01*
X15351134Y-15494460D02*
X15341611Y-15484936D01*
X15341611Y-15484936D02*
X15332087Y-15465888D01*
X15332087Y-15465888D02*
X15332087Y-15408746D01*
X15332087Y-15408746D02*
X15341611Y-15389698D01*
X15341611Y-15389698D02*
X15351134Y-15380174D01*
X15351134Y-15380174D02*
X15370182Y-15370650D01*
X15370182Y-15370650D02*
X15398753Y-15370650D01*
X15398753Y-15370650D02*
X15417801Y-15380174D01*
X15417801Y-15380174D02*
X15427325Y-15389698D01*
X15427325Y-15389698D02*
X15436849Y-15408746D01*
X15436849Y-15408746D02*
X15436849Y-15465888D01*
X15436849Y-15465888D02*
X15427325Y-15484936D01*
X15427325Y-15484936D02*
X15417801Y-15494460D01*
X15417801Y-15494460D02*
X15398753Y-15503984D01*
X15398753Y-15503984D02*
X15370182Y-15503984D01*
X15493992Y-15370650D02*
X15570182Y-15370650D01*
X15522563Y-15303984D02*
X15522563Y-15475412D01*
X15522563Y-15475412D02*
X15532087Y-15494460D01*
X15532087Y-15494460D02*
X15551134Y-15503984D01*
X15551134Y-15503984D02*
X15570182Y-15503984D01*
X15789230Y-15370650D02*
X15789230Y-15570650D01*
X15789230Y-15380174D02*
X15808277Y-15370650D01*
X15808277Y-15370650D02*
X15846373Y-15370650D01*
X15846373Y-15370650D02*
X15865420Y-15380174D01*
X15865420Y-15380174D02*
X15874944Y-15389698D01*
X15874944Y-15389698D02*
X15884468Y-15408746D01*
X15884468Y-15408746D02*
X15884468Y-15465888D01*
X15884468Y-15465888D02*
X15874944Y-15484936D01*
X15874944Y-15484936D02*
X15865420Y-15494460D01*
X15865420Y-15494460D02*
X15846373Y-15503984D01*
X15846373Y-15503984D02*
X15808277Y-15503984D01*
X15808277Y-15503984D02*
X15789230Y-15494460D01*
X15998753Y-15503984D02*
X15979706Y-15494460D01*
X15979706Y-15494460D02*
X15970182Y-15475412D01*
X15970182Y-15475412D02*
X15970182Y-15303984D01*
X16160658Y-15503984D02*
X16160658Y-15399222D01*
X16160658Y-15399222D02*
X16151134Y-15380174D01*
X16151134Y-15380174D02*
X16132087Y-15370650D01*
X16132087Y-15370650D02*
X16093992Y-15370650D01*
X16093992Y-15370650D02*
X16074944Y-15380174D01*
X16160658Y-15494460D02*
X16141611Y-15503984D01*
X16141611Y-15503984D02*
X16093992Y-15503984D01*
X16093992Y-15503984D02*
X16074944Y-15494460D01*
X16074944Y-15494460D02*
X16065420Y-15475412D01*
X16065420Y-15475412D02*
X16065420Y-15456365D01*
X16065420Y-15456365D02*
X16074944Y-15437317D01*
X16074944Y-15437317D02*
X16093992Y-15427793D01*
X16093992Y-15427793D02*
X16141611Y-15427793D01*
X16141611Y-15427793D02*
X16160658Y-15418269D01*
X16227325Y-15370650D02*
X16303515Y-15370650D01*
X16255896Y-15303984D02*
X16255896Y-15475412D01*
X16255896Y-15475412D02*
X16265420Y-15494460D01*
X16265420Y-15494460D02*
X16284468Y-15503984D01*
X16284468Y-15503984D02*
X16303515Y-15503984D01*
X16446373Y-15494460D02*
X16427325Y-15503984D01*
X16427325Y-15503984D02*
X16389230Y-15503984D01*
X16389230Y-15503984D02*
X16370182Y-15494460D01*
X16370182Y-15494460D02*
X16360658Y-15475412D01*
X16360658Y-15475412D02*
X16360658Y-15399222D01*
X16360658Y-15399222D02*
X16370182Y-15380174D01*
X16370182Y-15380174D02*
X16389230Y-15370650D01*
X16389230Y-15370650D02*
X16427325Y-15370650D01*
X16427325Y-15370650D02*
X16446373Y-15380174D01*
X16446373Y-15380174D02*
X16455896Y-15399222D01*
X16455896Y-15399222D02*
X16455896Y-15418269D01*
X16455896Y-15418269D02*
X16360658Y-15437317D01*
X16627325Y-15503984D02*
X16627325Y-15303984D01*
X16627325Y-15494460D02*
X16608277Y-15503984D01*
X16608277Y-15503984D02*
X16570182Y-15503984D01*
X16570182Y-15503984D02*
X16551134Y-15494460D01*
X16551134Y-15494460D02*
X16541611Y-15484936D01*
X16541611Y-15484936D02*
X16532087Y-15465888D01*
X16532087Y-15465888D02*
X16532087Y-15408746D01*
X16532087Y-15408746D02*
X16541611Y-15389698D01*
X16541611Y-15389698D02*
X16551134Y-15380174D01*
X16551134Y-15380174D02*
X16570182Y-15370650D01*
X16570182Y-15370650D02*
X16608277Y-15370650D01*
X16608277Y-15370650D02*
X16627325Y-15380174D01*
X16703515Y-15580174D02*
X16713039Y-15570650D01*
X16713039Y-15570650D02*
X16732087Y-15542079D01*
X16732087Y-15542079D02*
X16741611Y-15523031D01*
X16741611Y-15523031D02*
X16751134Y-15494460D01*
X16751134Y-15494460D02*
X16760658Y-15446841D01*
X16760658Y-15446841D02*
X16760658Y-15408746D01*
X16760658Y-15408746D02*
X16751134Y-15361127D01*
X16751134Y-15361127D02*
X16741611Y-15332555D01*
X16741611Y-15332555D02*
X16732087Y-15313508D01*
X16732087Y-15313508D02*
X16713039Y-15284936D01*
X16713039Y-15284936D02*
X16703515Y-15275412D01*
M02*
