M48
; DRILL file {KiCad 9.0.0} date 2025-03-20T11:59:10+0530
; FORMAT={3:3/ absolute / metric / suppress leading zeros}
; #@! TF.CreationDate,2025-03-20T11:59:10+05:30
; #@! TF.GenerationSoftware,Kicad,Pcbnew,9.0.0
; #@! TF.FileFunction,Plated,1,2,PTH
FMAT,2
METRIC,TZ
; #@! TA.AperFunction,Plated,PTH,ViaDrill
T1C0.300
; #@! TA.AperFunction,Plated,PTH,ComponentDrill
T2C0.800
; #@! TA.AperFunction,Plated,PTH,ComponentDrill
T3C0.900
; #@! TA.AperFunction,Plated,PTH,ComponentDrill
T4C1.100
; #@! TA.AperFunction,Plated,PTH,ComponentDrill
T5C1.200
; #@! TA.AperFunction,Plated,PTH,ComponentDrill
T6C1.800
%
G90
G05
T1
X159000Y-89000
X159000Y-94500
X159920Y-111050
X160000Y-113500
X170000Y-111000
X173000Y-113500
X180000Y-108500
X186000Y-111000
X190000Y-92500
X190500Y-95500
X191000Y-106000
X194000Y-114000
X199000Y-90000
X201500Y-114000
X203500Y-91500
X204500Y-96000
T2
X149760Y-107000
X149760Y-116000
X159920Y-107000
X159920Y-116000
T3
X171235Y-64500
X176315Y-64500
X194500Y-65000
X194500Y-77500
X194500Y-82500
X197040Y-65000
X199500Y-80000
T4
X195460Y-137445
X198000Y-137445
X200540Y-137445
T5
X107500Y-67150
X108000Y-132500
X134000Y-132500
X142500Y-67150
T6
X126960Y-96600
X126960Y-102100
X144410Y-96600
X144410Y-102100
M30
